<?xml version="1.0" encoding="UTF-8" standalone="no"?>
<!-- Created with Inkscape (http://www.inkscape.org/) -->

<svg
   width="68.464066mm"
   height="58.749023mm"
   viewBox="0 0 68.464066 58.749023"
   version="1.1"
   id="svg1"
   xml:space="preserve"
   xmlns="http://www.w3.org/2000/svg"
   xmlns:svg="http://www.w3.org/2000/svg"><defs
     id="defs1" /><g
     id="layer1"
     transform="translate(-70.857645,-120.45417)"><g
       id="g1"><path
         style="fill:#b4b4b4;fill-opacity:1"
         d="m 115.72453,175.37768 c 8.80788,-9.38369 12.07097,-11.48541 12.07097,-7.77476 0,0.8372 0.12464,0.87771 1.05834,0.34395 1.38007,-0.78892 2.59813,-0.17564 2.10202,1.05834 -0.33606,0.83588 -0.28605,0.96399 0.26183,0.67077 1.27071,-0.68007 1.42335,0.15895 0.42072,2.31256 -0.6886,1.4791 -3.01416,5.09013 -3.90512,6.06371 -0.53112,0.58037 -0.53112,0.58037 0.89002,0.66146 0.78163,0.0446 -2.5225,0.0811 -7.34253,0.0811 -8.76368,0 -8.76368,0 -5.55625,-3.41711 z M 87.909718,155.89712 c -4.310125,-0.77262 -9.855882,-4.91773 -9.855882,-7.36665 0,-2.28224 8.590992,-8.93903 12.972302,-10.05167 2.204458,-0.55983 1.850619,-0.81707 -1.132198,-0.8231 -2.120795,-0.004 -2.093484,0.0802 -0.973812,-3.01412 0.979218,-2.7062 2.771055,-6.24392 4.284347,-8.45882 0.611599,-0.89515 1.114076,-1.71578 1.116617,-1.82362 0.0059,-0.25098 2.792279,-2.84664 3.055781,-2.84664 0.210867,0 1.07984,3.0347 1.767303,6.17191 0.228737,1.04384 0.428781,3.04963 0.444543,4.45733 0.02866,2.55945 0.02866,2.55945 0.822411,2.38125 4.08686,-0.91751 9.0462,0.53065 9.24489,2.69957 1.03515,11.29942 -10.004207,20.77942 -21.746302,18.67456 z m 4.937889,-0.93254 c 4.834018,-1.43555 6.64456,-7.81244 3.320662,-11.69566 -3.205007,-3.74433 -9.512159,-3.09599 -11.850305,1.21815 -3.1579,5.82667 2.166621,12.36712 8.529643,10.47751 z m 38.545873,-10.07407 c -0.34895,-1.54388 -1.67531,-3.21954 -3.78882,-4.78662 -2.34465,-1.73845 -2.34282,-1.28545 -0.035,-8.66354 1.23469,-3.94728 1.07657,-3.96637 2.71529,0.32783 1.99648,5.23165 2.71955,10.74827 1.70755,13.02765 -0.41114,0.92604 -0.41114,0.92604 -0.59904,0.0947 z"
         id="path4" /><path
         style="fill:#a6a6a6;fill-opacity:1"
         d="m 99.659446,133.47998 c 0.197438,-1.66706 -0.301387,-5.19426 -1.240985,-8.77504 -0.845382,-3.22172 -0.850898,-3.17139 0.246337,-2.24813 2.019772,1.69953 8.989972,10.90614 8.572762,11.32336 -0.0923,0.0923 -0.78291,0.16775 -1.53477,0.16775 -0.75185,0 -1.43237,0.0654 -1.51227,0.14525 -0.0799,0.0799 -0.96293,0.18572 -1.96232,0.23517 -0.99939,0.0495 -2.02114,0.17376 -2.270546,0.27626 -0.403399,0.16578 -0.436329,0.0416 -0.298208,-1.12462 z"
         id="path3" /><path
         style="fill:#baaf9a;fill-opacity:1"
         d="m 99.3022,167.64454 c -2.191473,-0.77636 -3.192905,-2.37571 -2.156901,-3.44471 3.766411,-3.88638 12.777551,-5.15717 12.263531,-1.72946 -0.69134,4.61021 -5.19301,6.91488 -10.10663,5.17417 z"
         id="path2" /><path
         style="fill:#e8dcc6;fill-opacity:1"
         d="m 74.568186,178.46406 c -0.53806,-0.63447 -2.395419,-3.65245 -3.105796,-5.04653 -1.199758,-2.35448 -0.572739,-4.91172 1.511554,-6.16472 0.538368,-0.32365 1.014973,-0.61382 1.059123,-0.64483 0.04415,-0.031 -0.120083,-1.04516 -0.364961,-2.25369 -1.741565,-8.59497 2.607953,-18.82304 9.993709,-23.50063 1.403479,-0.88885 1.403479,-0.88885 2.400518,-3.96344 2.404458,-7.41468 8.570427,-16.43605 11.23379,-16.43605 1.503287,0 10.457077,10.25493 11.315627,12.95999 0.12104,0.38134 0.51355,0.53938 1.66738,0.67135 0.82999,0.0949 2.42279,0.38154 3.53954,0.6369 2.03046,0.4643 2.03046,0.4643 5.15938,-2.69242 3.58494,-3.6168 8.70963,-8.11952 10.05881,-8.83802 3.37737,-1.79858 8.95983,16.36053 7.42539,24.15397 -0.36298,1.84357 -0.35637,1.91912 0.27669,3.16478 4.41541,8.68809 3.04404,20.26145 -3.15428,26.6197 -3.13789,3.21886 -3.75363,2.68532 -1.81971,-1.57677 1.84463,-4.0653 2.05242,-4.8793 1.4718,-5.76544 -0.43858,-0.66936 -1.41382,-0.86814 -1.89559,-0.38637 -0.17607,0.17607 -0.22853,-0.0424 -0.1571,-0.65432 0.14639,-1.25391 -0.78428,-1.74411 -2.0821,-1.09668 -1.06072,0.52916 -1.04187,0.52992 -1.04187,-0.042 0,-4.14798 -4.69202,-1.02928 -13.91766,9.25082 -2.17685,2.42566 -4.22646,3.21687 -2.4426,0.94291 7.13835,-9.09949 16.88942,-15.77907 16.88942,-11.56942 0,0.77425 0.34004,1.04314 0.66146,0.52307 0.50161,-0.81161 2.77813,0.16817 2.77813,1.19567 0,0.29274 0.17344,0.35838 0.63853,0.24165 2.06144,-0.51739 2.17601,2.27499 0.30469,7.42622 -0.43944,1.20967 2.3181,-2.26588 3.15465,-3.97606 2.61162,-5.339 2.49666,-15.10178 -0.24311,-20.64532 -0.92303,-1.86763 -0.92303,-1.86763 -0.62759,-5.28632 0.54407,-6.29555 -0.78349,-12.66206 -4.04038,-19.37633 -1.12648,-2.32231 -1.38437,-2.68146 -1.77381,-2.47039 -0.9936,0.5385 -5.69198,4.66199 -9.50081,8.3383 -4.01803,3.87822 -4.01803,3.87822 -9.45991,3.07582 -2.99304,-0.44132 -5.58031,-0.80241 -5.7495,-0.80241 -0.90562,0 0.2959,-0.41327 1.53413,-0.52768 1.59276,-0.14716 1.03166,-1.28156 -3.45088,-6.97675 -3.867476,-4.91375 -5.305482,-5.96672 -6.540078,-4.7889 -4.074309,3.88694 -6.921759,8.22274 -9.094019,13.84744 -1.341298,3.47306 -1.318302,3.51334 1.588708,2.78257 0.291042,-0.0732 -0.185208,0.24329 -1.058333,0.70323 -18.052214,9.50932 -17.849974,31.2118 0.358933,38.51721 2.2869,0.91751 2.2869,0.91751 0.50373,0.80359 -4.581401,-0.29267 -10.385061,-4.59086 -13.544562,-10.0311 -0.729935,-1.25685 -0.729935,-1.25685 -1.529844,-0.79375 -2.3747,1.37481 -2.134111,3.94573 0.781412,8.35011 0.692687,1.04642 1.354659,2.0514 1.471049,2.2333 0.335213,0.5239 -0.727954,0.40507 -1.18366,-0.13229 z m 24.61457,-9.41499 c -5.254944,-1.9566 -6.172626,-7.88478 -1.943641,-12.55584 1.122459,-1.2398 1.122459,-1.2398 1.92266,-0.38318 0.941025,1.00736 1.891095,1.10864 3.157345,0.33658 0.84966,-0.51807 0.84966,-0.51807 1.63329,0.26557 1.24227,1.24226 3.35903,0.79675 3.87046,-0.81461 0.55844,-1.75947 2.77472,3.1105 2.77472,6.09705 0,5.4086 -5.95348,9.08788 -11.414834,7.05443 z m 6.160614,-1.27697 c 2.19406,-0.65735 3.65462,-2.56206 4.06546,-5.30173 0.51402,-3.42771 -8.49712,-2.15692 -12.263531,1.72946 -2.190831,2.26061 3.825671,4.88228 8.198071,3.57227 z m 10.80236,-8.28554 c -3.94405,-1.26801 -5.9424,-6.1174 -4.06958,-9.87565 3.18429,-6.39004 12.70223,-4.64343 13.27044,2.43522 0.41439,5.16244 -4.33649,9.00431 -9.20086,7.44043 z m 4.37373,-1.69859 c 2.16869,-1.00407 3.04271,-2.49896 3.04271,-5.20415 0,-3.02 -1.81039,-3.70773 -4.4925,-1.70661 -0.77719,0.57986 -1.84049,1.12438 -2.36289,1.21003 -2.32595,0.38138 -3.06215,0.74045 -3.15329,1.53796 -0.37563,3.28687 3.65517,5.69562 6.96597,4.16277 z m -31.884004,-2.9206 c -7.777601,-2.36584 -6.030347,-13.91154 2.100111,-13.87734 7.52717,0.0317 9.652753,10.29371 2.796394,13.50062 -1.357697,0.63503 -3.50437,0.80019 -4.896505,0.37672 z m 4.494843,-1.86701 c 1.337592,-0.68239 2.28605,-1.94753 2.638259,-3.51916 0.836866,-3.73426 -1.463725,-5.6058 -4.197935,-3.41503 -1.345265,1.07788 -1.808998,1.28754 -3.566359,1.61241 -2.072732,0.38316 -2.364887,0.65679 -2.206038,2.0661 0.348797,3.09451 4.251326,4.82736 7.332073,3.25568 z m 37.101871,-8.96891 c -0.99721,-1.24088 -4.08963,-3.61395 -5.28094,-4.05247 -1.02963,-0.37901 -1.02303,-0.27524 -0.2067,-3.25294 0.90826,-3.31301 2.94554,-8.06979 3.45621,-8.06979 0.0497,0 -0.24269,0.98534 -0.64977,2.18964 -0.86571,2.56111 -2.26638,7.83546 -2.11135,7.95051 0.0588,0.0436 0.90737,0.64118 1.88569,1.32786 1.80493,1.26685 2.69367,2.24066 3.50118,3.83627 0.6313,1.24743 0.37566,1.27794 -0.59432,0.0709 z m -51.574405,-9.60822 c -0.45799,-1.70058 -1.785042,-3.52486 -3.002182,-4.12705 -1.055645,-0.52229 -1.055645,-0.52229 -0.0563,-1.03339 1.169863,-0.59832 2.572403,-2.53948 3.071464,-4.25102 0.349799,-1.19964 0.349799,-1.19964 0.697757,0.0431 0.495496,1.76974 1.657375,3.38983 2.953519,4.1183 1.093431,0.61455 1.103267,0.63245 0.474711,0.86422 -1.357674,0.5006 -2.709555,2.27811 -3.525851,4.63592 -0.306968,0.88666 -0.306968,0.88666 -0.613118,-0.25012 z"
         id="path1" /></g></g></svg>
